<svg xmlns="http://www.w3.org/2000/svg" viewBox="0 0 100 100">
    <path fill="#A4C639" d="M30,38 h40 v25 a8,8 0 0 1 -8,8 h-24 a8,8 0 0 1 -8,-8 Z" />
    <rect fill="#A4C639" x="37" y="72" width="8" height="15" rx="4" ry="4" />
    <rect fill="#A4C639" x="55" y="72" width="8" height="15" rx="4" ry="4" />
    <rect fill="#A4C639" x="19" y="38" width="8" height="23" rx="4" ry="4" />
    <rect fill="#A4C639" x="73" y="38" width="8" height="23" rx="4" ry="4" />
    <path fill="#A4C639" d="M30,35 a20,20 0 0 1 40,0 Z" />
    <circle fill="white" cx="42" cy="24" r="2.5" />
    <circle fill="white" cx="58" cy="24" r="2.5" />
    <line stroke="#A4C639" stroke-width="2" stroke-linecap="round" x1="38" y1="18" x2="33" y2="10" />
    <line stroke="#A4C639" stroke-width="2" stroke-linecap="round" x1="62" y1="18" x2="67" y2="10" />
</svg>